<svg xmlns="http://www.w3.org/2000/svg" viewBox="0 0 5 5"><path d="M.295 2.077a.296.296 0 0 0 .118.112c.06.028.13.047.194.051.034.002.068-.004.103-.009-.034-.025-.064-.061-.092-.092-.026-.033-.052-.063-.074-.099a.367.367 0 0 1-.027-.307c.01-.028.058-.02.054.012a.365.365 0 0 0 .027.221.341.341 0 0 0 .154.154.35.35 0 0 1-.007-.065c-.002-.054.022-.098.04-.147.008-.026.048-.011.039.015a.283.283 0 0 0 .03.227.189.189 0 0 0 .039.045c.055.027.111.05.172.069.066.022.135.041.202.06a.428.428 0 0 1-.076-.227.26.26 0 0 1 .07-.181c.017-.02.049.002.032.023-.036.048-.022.11-.01.164l.007.024a.291.291 0 0 1 .058-.054c.021-.015.046.015.025.03a.205.205 0 0 0-.058.095c.007.017.016.032.024.047.034.06.095.098.146.144.055.018.108.038.161.058-.004-.015-.006-.03-.008-.045a.471.471 0 0 1 .064-.289c.011-.021.047-.002.037.02a.363.363 0 0 0-.022.263.444.444 0 0 0 .04.096.573.573 0 0 1 .103.068.214.214 0 0 1 .045-.122c.034-.045.085-.059.136-.075.022-.008.034.03.012.038-.132.047-.088.196-.047.316l.02.022c.063.067.132.128.182.207.044.068.091.164.07.247-.027.098-.134.11-.21.064-.071-.044-.104-.132-.127-.209-.024-.083-.039-.162-.087-.237a.07.07 0 0 0-.01-.016.742.742 0 0 1-.049-.062l-.047-.075a.54.54 0 0 0-.076-.029c-.04-.013-.082-.017-.123-.007s-.081.034-.12.05a.49.49 0 0 1-.296.012.434.434 0 0 1-.236-.167c-.021-.025.016-.056.038-.032a.324.324 0 0 0 .165.09.291.291 0 0 1-.045-.067c-.014-.025.023-.041.038-.018.025.04.068.067.112.084a.21.21 0 0 0 .065.014h.002c.021-.001.041-.004.062-.007.043-.007.083-.031.122-.048a.448.448 0 0 1 .054-.02c-.062-.02-.123-.04-.187-.057-.136-.038-.276-.069-.407-.12H.909c-.056-.002-.108-.008-.166-.001a.475.475 0 0 1-.188-.005.795.795 0 0 1-.195-.087c-.055-.032-.072-.092-.102-.142-.013-.022.023-.045.037-.024zM4.706 2.077a.298.298 0 0 1-.119.112.547.547 0 0 1-.194.051c-.034.002-.067-.004-.102-.009.033-.025.063-.061.091-.092.027-.033.052-.063.075-.099a.365.365 0 0 0 .049-.214.573.573 0 0 0-.022-.093c-.011-.028-.06-.02-.055.012a.364.364 0 0 1-.025.221.36.36 0 0 1-.062.088.363.363 0 0 1-.092.066c.004-.021.005-.043.006-.065.002-.054-.023-.098-.04-.147-.008-.026-.048-.011-.04.015.027.075.01.16-.029.228a.153.153 0 0 1-.039.045 1.26 1.26 0 0 1-.17.069 5.192 5.192 0 0 1-.203.06.463.463 0 0 0 .076-.227.27.27 0 0 0-.07-.181c-.018-.02-.05.002-.034.023.035.048.021.11.01.164l-.006.023a.313.313 0 0 0-.058-.053c-.021-.015-.047.015-.026.03a.19.19 0 0 1 .058.095.402.402 0 0 1-.024.046c-.034.06-.094.098-.146.144a3.898 3.898 0 0 0-.161.057.696.696 0 0 0 .01-.044.493.493 0 0 0-.064-.289c-.012-.021-.047-.002-.038.02a.366.366 0 0 1-.018.36.533.533 0 0 0-.076.044c-.009.007-.02.014-.028.023a.201.201 0 0 0-.045-.122c-.033-.045-.085-.059-.136-.075-.021-.008-.033.03-.012.038.134.047.089.196.048.316l-.02.022c-.063.067-.131.128-.181.207-.044.068-.092.163-.07.246.025.098.133.111.208.064.072-.043.105-.131.128-.208.025-.083.039-.163.087-.237.003-.005.005-.011.009-.016a.485.485 0 0 0 .05-.062c.016-.025.03-.051.047-.075a.699.699 0 0 1 .076-.029c.04-.013.081-.017.123-.007s.079.034.119.05a.49.49 0 0 0 .296.012.433.433 0 0 0 .237-.167c.021-.026-.017-.057-.039-.033a.318.318 0 0 1-.165.091.333.333 0 0 0 .046-.067c.013-.024-.024-.041-.04-.018a.216.216 0 0 1-.11.084.224.224 0 0 1-.067.015 1.348 1.348 0 0 1-.063-.007c-.043-.007-.082-.031-.123-.048a.37.37 0 0 0-.052-.02c.06-.021.123-.041.186-.058.138-.038.276-.069.408-.12h.007c.056-.002.108-.008.166-.001a.47.47 0 0 0 .187-.005.727.727 0 0 0 .195-.087c.055-.031.072-.091.102-.142.014-.022-.021-.045-.036-.024z"/></svg>